<svg width="128" height="128" viewBox="0 0 128 128" fill="none" xmlns="http://www.w3.org/2000/svg">
<g clip-path="url(#clip0_216_6901)">
<path d="M22.6008 132.976L24.6547 125.971C24.6547 125.971 31.3822 100.847 31.66 100.48C31.9378 100.113 36.145 91.2423 36.145 91.2423C36.145 91.2423 29.1397 84.366 28.9512 84.3462C28.7626 84.3263 23.9105 73.0345 23.9105 73.0345L23.2557 64.908C23.2557 64.908 26.8079 52.4851 27.175 52.2073C27.5422 51.9294 38.1989 39.3676 38.1989 39.3676L47.8138 25.5059C47.8138 25.5059 52.6659 32.1341 52.9536 32.5111C53.2414 32.8882 54.7397 37.651 54.9679 37.9288C55.1961 38.2066 56.9127 44.7455 57.2203 44.9341C57.5279 45.1226 64.7217 47.5933 65.4659 47.5735C66.2101 47.5536 79.8436 46.8293 80.3099 46.5812C80.7763 46.3331 82.0464 43.8426 82.6219 43.406C83.1974 42.9694 82.4333 32.8683 82.4333 32.8683L89.9248 26.7164L94.1319 30.1297C94.1319 30.1297 97.2178 40.2507 97.3071 40.7269C97.3964 41.2032 102.913 52.0286 102.913 52.0286L108.142 61.7824L110.107 74.9099L103.757 86.2811L97.4063 92.3238C97.4063 92.3238 102.824 126.735 102.913 127.301C103.003 127.866 103.667 139.535 103.667 139.535" fill="#F9FAFB"/>
<path d="M61.6762 38.276C62.0334 38.7423 61.835 38.6232 61.8548 38.2958C61.8747 37.9981 61.825 37.6905 61.8548 37.3929C61.8548 37.4127 61.9044 36.8372 61.9441 36.8868C61.9243 36.9364 61.9044 36.9662 61.8747 37.0059C61.6266 37.3135 61.2495 37.4226 60.7534 37.3135C60.3069 37.2043 60.6939 36.7082 60.426 37.4921C60.3466 37.7104 60.2176 37.9088 60.0985 38.1073C59.9993 38.276 59.9001 38.4347 59.7909 38.5935C59.8207 38.5339 59.8505 38.4744 59.8703 38.4248L61.1205 38.0874C61.2099 38.0874 62.0632 38.6629 62.093 38.6332C62.0433 38.6927 61.9441 38.2164 61.9342 38.137C61.8846 37.8989 61.8747 37.6806 61.8647 37.4326C61.8449 36.6685 61.8846 35.9243 62.0433 35.1802C62.3509 33.7315 62.9264 32.4316 63.7599 31.2112C64.524 30.0899 65.5757 29.0977 66.7565 28.4329C67.203 28.1749 67.7885 27.897 68.3044 28.036C68.9891 28.2146 69.8325 28.9984 70.3782 29.4251C72.8787 31.3798 74.9823 33.8307 76.55 36.5891C77.1652 37.6806 78.0582 39.3377 77.6117 40.5085C77.2347 41.4809 76.1829 42.0763 75.1807 42.364C73.6427 42.8105 71.817 42.5922 70.1401 42.3243C68.2846 42.0267 66.4192 41.8481 64.5537 41.5901C63.2043 41.4015 61.7159 41.0939 60.6939 40.1513C59.6719 39.2087 59.781 37.4722 59.781 36.1426C59.781 34.4856 60.0886 33.156 61.2297 31.9057C62.3708 30.6555 63.5615 29.3358 64.9804 28.4626C65.6551 28.0459 66.3497 27.7879 67.1137 27.5795C67.6098 27.4406 68.5029 27.0536 68.9891 27.0933C69.5547 27.1429 70.3485 27.8177 70.8545 28.1153C71.4995 28.5023 72.1444 28.8893 72.7199 29.3755C74.0495 30.5067 74.6846 31.9454 74.9525 33.6521C75.0716 34.436 75.2303 35.4381 75.0815 36.222C74.9922 36.7281 74.7143 36.9265 74.2678 37.1944C72.7596 38.0775 70.795 38.4943 69.0486 38.6133C68.2151 38.6729 67.1832 38.7026 66.4985 38.5538C66.2207 38.4943 65.9726 38.4248 65.8139 38.3553C65.3971 38.1569 65.546 38.2462 65.3773 37.9485L62.5792 41.5901C65.7444 42.5029 69.0288 43.8028 72.323 44.1203C74.0694 44.289 75.3692 43.6242 76.4805 42.3243C77.5919 41.0245 78.5742 39.5659 78.6536 37.7798C78.8123 34.2772 75.1609 32.1637 72.2139 31.2905C68.3243 30.1495 66.5184 33.6422 64.6232 36.3212L69.2471 37.5715C69.2471 37.0952 70.3981 36.2419 70.8049 35.9243C71.6483 35.2595 72.6009 34.7336 73.5733 34.2772L69.9317 32.7988C70.1599 33.6025 70.1599 34.3864 69.7928 35.1603C69.515 35.7259 69.1181 35.7358 70.3981 35.3588C71.6781 34.9817 71.2812 35.1802 70.7255 34.7932C70.785 34.8329 70.3584 34.555 70.4774 34.6245C70.2393 34.3467 70.1996 34.3268 70.3683 34.565C70.4973 34.813 70.5171 34.7733 70.4179 34.436V35.7557L70.3485 35.8747L69.4554 36.7677C68.7609 37.2242 68.5525 36.6388 69.2967 37.2242C69.7333 37.5615 69.9615 38.0279 70.1798 38.524L72.9779 34.8825C71.43 34.6245 69.9615 34.1383 68.6517 33.2453C68.493 33.1361 67.7984 32.3522 67.7885 32.3522C67.8877 32.6499 67.848 32.8781 67.6694 33.0468L67.6396 33.0667C67.6396 33.0667 68.3739 32.7095 68.4731 32.6698L65.417 30.9333C65.159 30.08 65.794 30.2784 65.1491 30.6158C64.9804 30.7051 64.8117 30.8639 64.643 30.973C64.1469 31.2806 63.6706 31.4791 63.0951 31.6378L66.1512 34.6939C66.4092 33.9398 66.9153 33.3544 67.4809 32.7988C67.8182 32.4713 68.1754 32.1637 68.5426 31.866C68.6517 31.7767 68.7609 31.6874 68.8799 31.6081C69.0585 31.4691 69.5447 31.3005 69.0982 31.3898L67.1832 31.1417L67.3816 31.2608L66.4886 30.3677C66.0917 29.5045 66.4787 30.6654 66.3497 31.0127L66.9847 29.9212C67.6793 29.2961 67.332 29.6434 66.6474 29.6434C66.2108 29.6434 65.8337 29.5938 65.417 29.4946L66.0123 34.0291C66.568 33.6223 67.1435 33.2552 67.7587 32.9377C67.9571 32.8384 68.1556 32.7392 68.364 32.6598C68.7013 32.5308 69.5348 32.5308 68.6418 32.3423L67.1633 31.2012L67.3023 31.3798C68.1159 32.4415 69.4356 33.0071 70.6957 32.2729C71.7376 31.6577 72.4024 29.951 71.5888 28.8794C70.408 27.3414 68.999 27.2025 67.2328 27.8177C65.9032 28.284 64.653 28.9091 63.5218 29.7426C61.9342 30.9036 61.8449 33.7612 64.1171 34.2772C66.0322 34.7138 68.9891 35.0214 70.5072 33.4239C71.8666 31.995 71.6681 28.3932 70.1401 27.1628C68.1457 25.5553 66.1413 27.4009 64.6232 28.7008C63.105 30.0006 61.9937 31.5088 61.3587 33.3743C60.7236 35.2397 62.6685 36.9166 64.4148 36.4304C67.2626 35.6366 71.2712 33.1262 70.1996 29.6236C69.8325 28.413 68.4433 27.4208 67.1435 27.8871C65.7147 28.4031 64.3156 29.0381 63.492 30.3876C62.5692 31.8859 62.7478 33.7315 63.6706 35.1802C65.3078 37.7501 68.7609 39.1888 71.6483 39.675C73.8908 40.0521 75.3494 38.0775 74.4464 36.0335C73.5435 33.9895 71.3308 32.0546 68.999 31.9653C67.6297 31.9057 66.31 32.5705 65.7742 33.8803C65.1888 35.2893 65.7444 36.8471 66.7267 37.9287C68.3739 39.7346 71.3109 40.8757 73.226 38.8415C75.012 36.9464 75.3692 33.8902 74.6846 31.4791C74.2182 29.8319 72.4818 29.3259 71.043 30.0006C68.1754 31.3501 64.1866 34.0093 64.2561 37.5814C64.3057 40.1712 67.5007 40.7864 68.8799 38.8316C69.4257 38.0676 69.9714 37.3036 70.5072 36.5296C70.537 36.4899 71.3506 35.5374 70.7553 35.9839C70.3881 35.9541 70.4278 35.9839 70.8743 36.0732L71.2216 36.1922C71.7872 36.4006 73.2061 36.8868 73.5236 37.4326C73.7122 37.7501 73.6427 37.7997 73.4046 38.2065C73.2061 38.5439 72.8688 38.7919 72.6902 39.1194C72.4123 39.6353 72.6703 39.1988 72.6405 39.1988C71.6781 39.0995 70.7354 38.782 69.8126 38.5141C67.8381 37.9485 65.8635 37.373 63.8889 36.8074C61.7754 36.2022 60.039 38.5935 61.0908 40.449C62.5295 42.9991 65.4864 43.6539 68.2052 43.6043C71.1522 43.5547 74.5258 42.9197 77.0461 41.3023C79.8046 39.5361 80.2709 36.738 79.9237 33.6819C79.5764 30.6257 78.5543 27.8772 76.2325 25.853C75.2502 24.9997 74.1686 24.2853 73.0474 23.6304C71.6285 22.8068 70.2691 22.0329 68.5723 22.2015C65.4269 22.5191 62.5196 23.8189 60.1779 25.9324C58.0347 27.8673 55.7624 30.1098 55.1373 33.0369C54.5519 35.7656 54.4923 39.4964 55.9112 41.987C57.3302 44.4775 60.1085 45.817 62.8471 46.2834C64.3255 46.5414 65.8337 46.6208 67.3122 46.8391C68.9692 47.0871 70.6263 47.4146 72.3032 47.5237C75.141 47.7023 78.0285 47.0276 80.2114 45.1225C82.5035 43.1181 83.1584 40.0025 82.2455 37.1448C81.3326 34.2871 79.5664 31.8164 77.6911 29.5938C75.8157 27.3712 73.7221 25.476 71.3407 24.0273C65.6849 20.604 59.8802 26.8254 57.9354 31.7073C56.8638 34.3963 56.2784 38.147 57.6774 40.826C58.5705 42.5327 60.5351 43.644 62.3807 42.6915C63.8294 41.9473 64.8514 40.1414 65.2681 38.6232C65.7643 36.8074 65.3674 34.8825 63.9683 33.5826C62.6585 32.3622 60.6046 31.995 59.0567 32.9774C56.2288 34.7535 56.3478 39.417 58.1934 41.7885C59.017 42.8502 60.8328 42.6518 61.706 41.7885C62.7478 40.7467 62.5295 39.3377 61.706 38.276H61.6762Z" fill="#9CA3AF"/>
<path d="M32.078 43.8527C26.6504 49.7169 22.9394 57.1092 22.096 65.0968C21.3319 72.36 23.3561 79.8217 27.8014 85.6264C30.2622 88.8413 33.3977 91.4906 37.0789 93.2171C38.8054 94.0208 40.3136 91.4608 38.5772 90.6472C32.6833 87.8887 28.3174 82.6298 26.2634 76.4878C24.0507 69.8794 24.6957 62.6955 27.4045 56.3253C29.0318 52.5051 31.3636 49.0025 34.1815 45.9563C35.4814 44.5473 33.3778 42.4437 32.078 43.8527Z" fill="#6B7280"/>
<path d="M39.8189 40.1908C41.9423 34.8624 45.1869 30.05 49.275 26.0215L46.9333 25.7238C48.6499 28.2441 50.2573 30.8438 51.7159 33.5229C52.3609 34.7037 52.9066 35.8745 53.1845 37.1942C53.4424 38.4345 53.5218 39.7046 53.7401 40.9548C54.1866 43.4553 55.3773 45.6184 57.6297 46.8984C59.8821 48.1784 62.4124 48.4662 64.8731 48.7638C67.9293 49.1409 71.0151 49.26 74.0911 49.121C76.6511 49.002 79.4889 48.873 81.6223 47.2556C83.4778 45.8466 85.3432 42.9294 85.0555 40.5282C84.7479 37.9582 81.9596 36.3409 79.8065 35.428C73.6744 32.8283 67.0362 34.4953 60.6462 33.5427C58.7708 33.2649 57.9671 36.1325 59.8524 36.4103C64.8037 37.1545 69.8344 36.3012 74.7658 37.095C76.9984 37.4522 79.2905 38.1468 81.0865 39.5756C82.168 40.4389 82.2772 41.2128 81.652 42.4432C81.2055 43.3362 80.6201 44.3186 79.8065 44.9238C77.9708 46.2832 75.0734 46.1344 72.9103 46.184C70.3107 46.2435 67.701 46.1244 65.1113 45.8169C63.0176 45.5688 60.6362 45.3108 58.8303 44.14C57.0244 42.9691 56.6871 40.8655 56.4291 38.8711C56.0818 36.202 55.3872 33.9893 54.0775 31.6178C52.6784 29.0776 51.1503 26.6169 49.5131 24.2156C48.9773 23.4218 47.8958 23.2035 47.1714 23.9179C42.7063 28.3235 39.2731 33.5725 36.9513 39.397C36.2468 41.1731 39.1243 41.9471 39.8189 40.1908Z" fill="#6B7280"/>
<path d="M58.2547 32.0942C59.3561 29.7624 60.517 27.2917 62.4817 25.5453C64.8531 23.4318 68.0879 23.5608 70.9356 24.5531C76.899 26.617 80.3918 32.4018 81.6916 38.2858C82.0984 40.1512 84.9759 39.3673 84.5592 37.492C83.0014 30.4173 78.4966 23.8188 71.3524 21.5565C67.9589 20.4749 64.1387 20.5742 61.2017 22.767C58.5921 24.7218 57.0541 27.7084 55.6848 30.5959C54.8711 32.3224 57.4311 33.8306 58.2547 32.0942Z" fill="#6B7280"/>
<path d="M85.0153 34.3569C86.8807 31.8465 88.9149 29.485 91.0978 27.2524L89.6491 27.6394C92.8938 28.7309 93.7372 32.7098 94.3821 35.627C95.1859 39.3182 96.4163 42.7712 98.5992 45.8968C99.6907 47.4546 102.271 45.9662 101.169 44.3985C100.068 42.8307 99.0755 41.0347 98.4107 39.1693C97.7062 37.2047 97.3688 35.1408 96.8628 33.1265C95.9697 29.5544 94.144 26.0121 90.4429 24.7718C89.9468 24.6031 89.3514 24.7916 88.9942 25.1588C86.6327 27.5699 84.4597 30.1498 82.4454 32.8586C81.9691 33.5036 82.3362 34.5256 82.9812 34.8927C83.7353 35.3392 84.539 35.0019 85.0153 34.3569Z" fill="#6B7280"/>
<path d="M98.5903 45.8962C102.599 52.8221 107.6 59.7976 108.215 68.0333C108.721 74.8103 106.687 82.3812 100.982 86.5685C99.4535 87.6897 100.932 90.2795 102.48 89.1384C108.85 84.4649 111.609 76.4773 111.232 68.7576C110.795 59.619 105.586 52.0581 101.15 44.3979C100.188 42.7409 97.6179 44.2392 98.5803 45.8962H98.5903Z" fill="#6B7280"/>
<path d="M91.5726 84.0483C95.6805 86.1916 99.6991 88.5234 103.599 91.0338C104.273 91.4704 105.246 91.1727 105.633 90.498C106.05 89.7736 105.782 88.9004 105.097 88.4639C101.197 85.9535 97.1887 83.6217 93.0709 81.4784C92.3565 81.1113 91.4535 81.2998 91.0368 82.0142C90.6498 82.679 90.8582 83.6812 91.5726 84.0483Z" fill="#6B7280"/>
<path d="M92.3394 72.0221C101.061 72.0221 109.783 71.7839 118.485 71.3473C120.39 71.2481 120.4 68.2714 118.485 68.3706C109.773 68.8171 101.061 69.0453 92.3394 69.0453C90.4243 69.0453 90.4243 72.0221 92.3394 72.0221Z" fill="#6B7280"/>
<path d="M22.8114 69.264C17.225 70.8218 11.6386 72.3697 6.05229 73.9276C4.20671 74.4435 4.99058 77.3111 6.84609 76.7951C12.4324 75.2373 18.0188 73.6894 23.6052 72.1316C25.4507 71.6156 24.6669 68.748 22.8114 69.264Z" fill="#6B7280"/>
<path d="M24.1614 78.0852C19.4184 80.7941 15.0922 84.2372 11.4011 88.2756C10.8553 88.871 10.8156 89.7937 11.4011 90.3792C11.9468 90.9249 12.9589 90.9745 13.5046 90.3792C17.037 86.5193 21.1152 83.2449 25.6597 80.6551C27.3266 79.7026 25.8283 77.1327 24.1614 78.0852Z" fill="#6B7280"/>
<path d="M47.0335 60.3436V60.3039C47.0434 60.4329 47.0633 60.5718 47.0831 60.7008C47.0533 60.4825 47.0533 60.2642 47.0831 60.0459L47.0335 60.4428C47.0633 60.2543 47.1129 60.0757 47.1823 59.8971L47.0335 60.2543C47.093 60.1055 47.1724 59.9765 47.2716 59.8475L47.0434 60.1452C47.1228 60.0459 47.2121 59.9566 47.3113 59.8773L47.0136 60.1055C47.1129 60.0261 47.222 59.9666 47.351 59.9169L46.9938 60.0658C47.1129 60.0162 47.2419 59.9864 47.3708 59.9666L46.9739 60.0162C47.1029 60.0062 47.2319 59.9963 47.3609 60.0162L46.964 59.9666C47.0732 59.9864 47.1823 60.0162 47.2915 60.0559L46.9343 59.907C47.0236 59.9467 47.1129 59.9963 47.1922 60.0559L46.8946 59.8276C46.9541 59.8773 47.0037 59.9269 47.0533 59.9864L46.8251 59.6887C46.9045 59.788 46.964 59.8971 47.0136 60.0162L46.8648 59.659C47.0037 59.9864 47.093 60.3535 47.1426 60.7008L47.093 60.3039C47.1129 60.4528 47.1129 60.5917 47.093 60.7405L47.1426 60.3436C47.1327 60.4428 47.1029 60.5321 47.0732 60.6214L47.222 60.2642C47.1823 60.3535 47.1327 60.4428 47.0732 60.5321L47.3014 60.2345C47.2319 60.3238 47.1526 60.4031 47.0632 60.4825L47.3609 60.2543C47.2617 60.3337 47.1526 60.4031 47.0335 60.4528L47.3907 60.3039C47.2716 60.3535 47.1426 60.3833 47.0136 60.4031L47.4105 60.3535C47.2915 60.3635 47.1823 60.3635 47.0632 60.3535L47.4602 60.4031C47.351 60.3833 47.2518 60.3535 47.1526 60.3238L47.5098 60.4726C47.4006 60.423 47.2915 60.3635 47.1922 60.294L47.4899 60.5222C47.3808 60.4329 47.2915 60.3436 47.2022 60.2345L47.4304 60.5321C47.351 60.423 47.2815 60.3039 47.222 60.1749L47.3708 60.5321C47.3113 60.3932 47.2716 60.2444 47.2518 60.0955L47.3014 60.4924C47.2815 60.3535 47.2815 60.2245 47.3014 60.0856L47.2518 60.4825C47.2716 60.3535 47.3014 60.2345 47.351 60.1253L47.2022 60.4825C47.2419 60.3932 47.2915 60.3138 47.351 60.2345L47.1228 60.5321C47.1724 60.4726 47.2319 60.4131 47.2915 60.3535L46.9938 60.5817C47.0533 60.5321 47.1228 60.4924 47.2022 60.4627L46.845 60.6115C46.9045 60.5917 46.9739 60.5718 47.0335 60.5619L46.6366 60.6115C46.6366 60.6115 46.7358 60.6115 46.7854 60.6115L46.3885 60.5619C46.3885 60.5619 46.4778 60.5817 46.5274 60.6016L46.1702 60.4528C46.2298 60.4825 46.2794 60.5123 46.329 60.5421L46.0313 60.3138C46.0908 60.3635 46.1405 60.4131 46.1801 60.4726L45.9519 60.1749C45.9519 60.1749 46.0015 60.2543 46.0214 60.294L45.8726 59.9368C45.8726 59.9368 45.9023 60.0261 45.9122 60.0658L45.8626 59.6689C45.8626 59.6689 45.8626 59.7582 45.8626 59.7979L45.9122 59.401C45.9122 59.401 45.9023 59.4704 45.8825 59.5002L46.0313 59.143C46.0313 59.143 46.0115 59.1827 46.0015 59.2025C45.813 59.5498 45.7436 59.9666 45.8527 60.3535C45.9519 60.7008 46.2099 61.0779 46.5374 61.2466C46.8846 61.4252 47.3014 61.5244 47.6884 61.3954C48.0753 61.2664 48.3829 61.058 48.5814 60.7107C48.9188 60.0955 48.9188 59.3811 48.5814 58.7659C48.3135 58.2599 47.8471 57.9225 47.3113 57.734C46.7557 57.5256 46.1504 57.6546 45.6344 57.9126C45.5848 57.9424 45.5352 57.9721 45.4856 58.0118C45.3566 58.1111 45.2077 58.2103 45.0986 58.3293C44.9398 58.498 44.7811 58.6965 44.6719 58.8949C44.2949 59.6292 44.1857 60.5421 44.5132 61.3259C44.6918 61.7724 44.8902 62.1396 45.2375 62.4869C45.5848 62.8342 45.9817 63.0624 46.4381 63.2112C46.8946 63.36 47.3411 63.3402 47.8074 63.2707C48.1448 63.2211 48.4921 63.0822 48.7699 62.8937C49.5637 62.3678 50.0797 61.5442 50.0797 60.5718C50.0797 60.1452 49.9805 59.7086 49.8614 59.3018C49.7622 58.9346 49.6332 58.5377 49.395 58.2301C49.147 57.8928 49.018 57.7638 48.6905 57.5157C48.502 57.3768 48.2936 57.2974 48.0753 57.218C47.7677 57.099 47.4105 57.0493 47.0831 57.0692C46.587 57.099 46.1107 57.218 45.6741 57.4661C45.2375 57.7142 44.9001 58.0813 44.6322 58.498C44.4239 58.8255 44.2651 59.2124 44.2056 59.5895C44.156 59.8475 44.1163 60.1154 44.1163 60.3734C44.1163 60.6314 44.156 60.8993 44.1957 61.1573C44.2453 61.4946 44.6025 61.8816 44.8803 62.0503C45.1978 62.2388 45.6741 62.3182 46.0313 62.1991C46.3885 62.08 46.7358 61.8618 46.9243 61.5145L47.0732 61.1573C47.1426 60.8893 47.1426 60.6314 47.0732 60.3635L47.0335 60.3436Z" fill="#6B7280"/>
<path d="M73.0274 58.6269C72.6007 58.4384 72.313 58.3491 71.8466 58.3193C71.539 58.2994 71.2116 58.3491 70.9238 58.4384C70.3682 58.617 69.8224 58.9345 69.4553 59.381C69.1775 59.7184 68.9989 60.016 68.85 60.4328C68.7409 60.7304 68.7012 61.048 68.6913 61.3655C68.6714 62.0005 68.8699 62.6753 69.1874 63.221C69.5049 63.7667 69.9812 64.2628 70.5269 64.5506C71.3406 64.9773 72.2435 65.0368 73.0671 64.6101C73.6128 64.3224 74.1089 63.7568 74.3669 63.2011C74.6249 62.6455 74.8134 62.0204 74.7936 61.3754C74.7936 61.0281 74.744 60.6709 74.6348 60.3335C74.5356 60.026 74.4066 59.6985 74.2181 59.4306C73.9998 59.1329 73.8113 58.9246 73.4938 58.736C73.1961 58.5673 72.8686 58.488 72.5214 58.488C72.1741 58.488 71.8466 58.5971 71.5688 58.7658C71.1818 59.0139 70.9437 59.3611 70.7948 59.7878C70.6758 60.145 70.7651 60.6213 70.9437 60.9388C71.1223 61.2563 71.4795 61.5441 71.8367 61.6235C72.6603 61.812 73.3945 61.3754 73.6724 60.5816V60.5419C73.6327 60.661 73.5831 60.7801 73.5334 60.8991L73.5533 60.8594L73.3251 61.1571C73.3251 61.1571 73.3548 61.1174 73.3846 61.0976L73.0869 61.3258C73.0869 61.3258 73.1365 61.296 73.1564 61.2861L72.7992 61.4349C72.7992 61.4349 72.8786 61.4052 72.9282 61.4052L72.5313 61.4548C72.5313 61.4548 72.5908 61.4548 72.6206 61.4548L72.2237 61.4052C72.2237 61.4052 72.2832 61.4151 72.3031 61.425L71.9458 61.2762C71.9458 61.2762 72.0351 61.3159 72.0748 61.3556L71.7772 61.1273C71.7772 61.1273 71.8466 61.1968 71.8863 61.2365L71.6581 60.9388C71.7375 61.048 71.8069 61.167 71.8565 61.296L71.7077 60.9388C71.7871 61.1273 71.8367 61.3159 71.8565 61.5143L71.8069 61.1174C71.8268 61.3159 71.8268 61.5143 71.8069 61.7227L71.8565 61.3258C71.8268 61.5441 71.7672 61.7525 71.6879 61.9509L71.8367 61.5937C71.7573 61.7822 71.6581 61.9509 71.539 62.1097L71.7672 61.812C71.668 61.9311 71.5589 62.0501 71.4398 62.1394L71.7375 61.9112C71.6482 61.9708 71.5589 62.0303 71.4596 62.07L71.8168 61.9211C71.7474 61.941 71.6779 61.9608 71.6085 61.9708L72.0054 61.9211C71.9161 61.9211 71.8268 61.9211 71.7375 61.9211L72.1344 61.9708C72.0054 61.9509 71.8863 61.9112 71.7672 61.8616L72.1245 62.0104C71.9855 61.9509 71.8665 61.8715 71.7474 61.7822L72.0451 62.0104C71.9161 61.9013 71.797 61.7822 71.6879 61.6532L71.9161 61.9509C71.797 61.7922 71.6879 61.6135 71.6085 61.425L71.7573 61.7822C71.6879 61.6136 71.6382 61.4349 71.6184 61.2464L71.668 61.6433C71.6482 61.4746 71.6482 61.3159 71.668 61.1472L71.6184 61.5441C71.6382 61.4151 71.6779 61.2861 71.7176 61.167L71.5688 61.5242C71.6283 61.3953 71.6879 61.2762 71.7772 61.167L71.5489 61.4647C71.6382 61.3556 71.7375 61.2663 71.8367 61.177L71.539 61.4052C71.6581 61.3159 71.797 61.2365 71.9359 61.177L71.5787 61.3258C71.7077 61.2762 71.8367 61.2365 71.9657 61.2167L71.5688 61.2663C71.6879 61.2563 71.8069 61.2563 71.926 61.2663L71.5291 61.2167C71.6383 61.2365 71.7375 61.2563 71.8367 61.296L71.4795 61.1472L71.5192 61.167C71.6879 61.2762 71.8764 61.3357 72.0748 61.3456C72.2733 61.3853 72.4717 61.3853 72.6702 61.3159C73.0175 61.2166 73.3945 60.9587 73.5632 60.6312C73.7418 60.2839 73.841 59.8672 73.712 59.4802C73.6029 59.1429 73.3747 58.736 73.0274 58.5872V58.6269Z" fill="#6B7280"/>
<path d="M58.502 62.9629C58.2341 63.0224 57.9662 63.0423 57.6388 63.0125C57.5991 63.0125 57.5693 63.0125 57.5296 63.0026C57.5892 63.0026 57.4999 63.0026 57.4999 63.0026C57.4304 62.9926 57.351 62.9728 57.2816 62.9629C57.1228 62.9232 56.964 62.8736 56.8053 62.814C56.8549 62.8339 56.7755 62.8041 56.7755 62.7942C56.7457 62.7744 56.7061 62.7644 56.6763 62.7446C56.6068 62.7148 56.5473 62.6751 56.4778 62.6354C56.4481 62.6156 56.4183 62.6057 56.3885 62.5858C56.4481 62.6255 56.3885 62.5858 56.3885 62.5759C56.4381 62.695 56.4679 62.7843 56.3885 62.8934C56.458 62.8339 56.3985 62.8736 56.3885 62.8934C56.4084 62.8736 56.4381 62.8637 56.458 62.8438C56.5274 62.7942 56.4878 62.824 56.458 62.8438C56.4878 62.8339 56.5175 62.824 56.5374 62.814C56.7061 62.7644 56.8847 62.7347 57.0633 62.7148C57.3808 62.6652 57.738 62.6354 58.0754 62.6255C58.244 62.6255 58.4127 62.6255 58.5913 62.6255C58.6707 62.6255 58.7501 62.6255 58.8394 62.6354C58.889 62.6354 58.9287 62.6652 59.018 62.6751C58.9981 62.6751 58.9882 62.6553 58.9684 62.6454C58.9882 62.6652 59.0081 62.6751 59.018 62.695C59.0081 62.685 58.9386 62.6255 58.9981 62.6851C58.9882 62.6751 58.9585 62.5759 58.9882 62.6652C58.9981 62.7049 58.9882 62.7247 58.9882 62.6454C58.9882 62.6652 58.9882 62.695 58.9882 62.7247C58.9882 62.7644 58.9585 62.7942 58.9882 62.7049C58.9882 62.7347 58.9684 62.7744 58.9585 62.7942C59.018 62.7049 58.9585 62.8537 58.9585 62.7942C58.9485 62.814 58.9287 62.8438 58.9188 62.8637C58.8989 62.9033 58.8692 62.9033 58.9188 62.8637C58.8989 62.8736 58.8791 62.9033 58.8592 62.9232C58.9386 62.8438 58.8096 62.953 58.8592 62.9232C58.8295 62.943 58.7898 62.943 58.76 62.953H58.7104C58.7104 62.953 58.7402 62.9629 58.7104 62.9629C58.4028 62.9926 58.125 62.8736 57.8471 62.7347C57.4899 62.5561 57.1426 62.3675 56.7457 62.2882L57.0434 63.0125C57.0434 63.0125 57.1228 62.8736 57.0831 62.943C57.0434 63.0125 57.1228 62.8934 57.1426 62.8835C57.1724 62.8637 57.2518 62.814 57.1526 62.8736C57.1823 62.8537 57.2121 62.8339 57.2419 62.814C57.2915 62.7843 57.3312 62.7843 57.2518 62.814C57.2915 62.8041 57.3312 62.7843 57.3709 62.7744C57.4006 62.7744 57.5395 62.7545 57.4006 62.7644C57.4403 62.7644 57.4701 62.7644 57.5098 62.7644C57.5495 62.7644 57.5792 62.7644 57.6189 62.7644C57.7281 62.7644 57.5296 62.7446 57.6288 62.7644C57.6685 62.7744 57.7082 62.7843 57.7479 62.7942C57.867 62.824 57.6983 62.7545 57.7777 62.7942C57.8074 62.814 57.8372 62.8339 57.867 62.8438C57.9563 62.8934 57.8074 62.7744 57.8769 62.8438C57.9067 62.8736 57.9265 62.8934 57.9563 62.9232C57.996 62.9629 57.9861 62.9629 57.9464 62.9133C57.9563 62.9331 57.9761 62.953 57.9861 62.9728V62.4767C57.9364 62.5759 57.9761 62.5064 58.0257 62.4568C58.0654 62.4271 58.0654 62.4271 58.0257 62.4568C58.0952 62.4271 58.115 62.4271 58.0754 62.437C58.1746 62.437 57.9563 62.4767 58.0754 62.437C58.0456 62.437 57.9265 62.437 58.0754 62.437C58.0257 62.437 57.9761 62.3874 58.0754 62.437C57.9861 62.3775 58.0654 62.4171 58.0754 62.4469C58.0555 62.437 58.0456 62.4171 58.0357 62.4072L58.0754 62.4568C58.0754 62.4568 58.0555 62.4271 58.0853 62.4965C58.0853 62.5759 58.0853 62.5957 58.0853 62.5362L57.4602 63.0125C57.7082 63.0621 57.9464 63.1117 58.1944 63.1613C58.4425 63.2109 58.7402 63.0919 58.8096 62.814C58.8692 62.566 58.7302 62.2584 58.4623 62.1988C58.2143 62.1492 57.9761 62.0996 57.7281 62.05C57.4205 61.9905 57.093 62.1889 57.1029 62.5263C57.1129 63.072 57.609 63.4392 58.1349 63.3995C58.4127 63.3796 58.6608 63.2407 58.8195 63.0026C59.0279 62.6851 58.8394 62.3477 58.5913 62.1195C57.8868 61.5043 56.6366 61.6134 56.1802 62.4767C56.0412 62.7446 56.1504 63.1415 56.4778 63.201C56.8847 63.2804 57.1823 63.4888 57.5693 63.6575C58.0059 63.8559 58.4822 63.9849 58.9684 63.8757C59.405 63.7765 59.7324 63.4788 59.8912 63.0621C60.0301 62.685 59.9705 62.2485 59.7026 61.9409C59.3752 61.5737 58.8295 61.5837 58.383 61.5737C57.8868 61.5737 57.4006 61.6035 56.9144 61.673C56.4977 61.7325 56.0214 61.792 55.7039 62.1095C55.5352 62.2683 55.436 62.4866 55.4558 62.7247C55.4757 63.0224 55.6543 63.2407 55.8924 63.3995C56.716 63.9551 57.8074 64.0841 58.7699 63.8757C59.0279 63.8162 59.1867 63.5185 59.1172 63.2606C59.0478 62.9926 58.7699 62.8537 58.502 62.9133V62.9629Z" fill="#6B7280"/>
<path d="M57.0241 64.1142C57.1332 65.5132 57.2622 66.9321 57.2523 68.3312C57.2424 69.3929 57.0935 70.5935 56.3593 71.4171C55.754 72.0918 54.7915 72.3796 53.9283 72.0224C53.065 71.6652 52.6284 70.7721 52.6681 69.9188L50.9714 70.6233C51.6064 71.3278 51.8942 72.2506 52.6483 72.8658C53.5611 73.61 54.7121 73.7092 55.7242 73.094C57.421 72.0621 58.4033 70.0081 58.3934 68.0534C58.3934 66.7734 56.4089 66.7734 56.4089 68.0534C56.4089 69.3334 55.8632 70.5737 54.8312 71.298C54.345 71.6354 54.0573 71.556 53.6703 71.0996C53.1841 70.5142 52.8864 69.7898 52.3704 69.2143C51.7652 68.5396 50.7035 69.1052 50.6737 69.9188C50.6142 71.3973 51.398 72.8658 52.678 73.6199C53.958 74.374 55.8135 74.3442 57.0638 73.4314C59.9512 71.3476 59.2467 67.1802 59.0086 64.1241C58.9689 63.5883 58.5819 63.1318 58.0163 63.1318C57.5103 63.1318 56.9844 63.5883 57.0241 64.1241V64.1142Z" fill="#6B7280"/>
<path d="M57.093 67.8747C57.7479 70.1271 58.6211 72.9749 61.0819 73.7985C62.213 74.1854 63.6716 74.1854 64.8425 73.9572C66.0927 73.7092 67.2239 72.7169 67.1842 71.3675C67.1643 70.663 66.569 70.3157 65.924 70.4149C64.9516 70.5637 63.9693 70.7721 62.987 70.8217C62.6 70.8416 62.2329 70.8217 61.8955 70.6233C61.5284 70.4149 61.2208 70.0974 60.9429 69.7799C59.8812 68.609 59.1073 66.9321 59.3454 65.3644C59.4248 64.8385 59.2164 64.2927 58.6509 64.1439C58.1845 64.0149 57.5098 64.3026 57.4304 64.8385C57.0732 67.1901 57.9563 69.4425 59.534 71.1888C60.3774 72.1116 61.3597 72.7566 62.6397 72.8062C63.245 72.8261 63.8602 72.7169 64.4555 72.6276C65.1203 72.5284 65.7851 72.4292 66.4499 72.3299L65.1898 71.3774C65.1898 71.5361 65.1203 71.7048 64.9318 71.8338C64.6242 72.0422 64.2273 72.0719 63.8701 72.0918C63.0564 72.1315 62.0741 72.1811 61.3398 71.7743C60.6651 71.4071 60.2781 70.7126 59.9606 70.0279C59.5637 69.1845 59.266 68.2617 58.9981 67.3588C58.6409 66.1383 56.7259 66.6543 57.0831 67.8847L57.093 67.8747Z" fill="#6B7280"/>
<path d="M99.4627 88.2154C96.9225 89.3961 94.3923 90.5769 91.8521 91.7577C90.969 92.1744 90.6714 93.514 91.1873 94.3078C91.7727 95.2206 92.7848 95.4191 93.7374 94.9726C96.2776 93.7918 98.8078 92.611 101.348 91.4302C102.231 91.0135 102.529 89.674 102.013 88.8802C101.427 87.9673 100.415 87.7689 99.4627 88.2154Z" fill="#6B7280"/>
<path d="M44.7792 94.7742C51.4273 97.1853 58.5814 98.0784 65.6264 97.364C67.204 97.2052 67.214 94.7246 65.6264 94.8833C58.7799 95.5779 51.9135 94.7345 45.444 92.3829C43.9358 91.8371 43.2909 94.2384 44.7892 94.7742H44.7792Z" fill="#6B7280"/>
<path d="M57.3913 67.9439C58.0065 66.4853 57.9271 64.8679 57.9569 63.32C57.9668 62.685 56.9746 62.685 56.9647 63.32C56.9547 64.0444 56.9547 64.7786 56.9151 65.503C56.8754 66.1579 56.796 66.8326 56.538 67.4478C56.4289 67.6958 56.4685 67.9836 56.7166 68.1225C56.925 68.2416 57.2921 68.192 57.3913 67.9439Z" fill="#6B7280"/>
<path d="M58.2928 63.0327C58.3027 63.5189 58.2928 64.0051 58.2233 64.4814C58.1836 64.7493 58.2928 65.0172 58.5706 65.0966C58.8087 65.166 59.1362 65.0172 59.1858 64.7493C59.2156 64.5508 59.2552 64.3623 59.3148 64.1738C59.3545 64.0448 59.3842 63.886 59.4537 63.7868C59.5132 63.7074 59.5827 63.6975 59.7018 63.6677C59.8605 63.6281 60.0093 63.5784 60.1582 63.509C60.5253 63.3205 60.7535 62.9335 60.6742 62.5167C60.5948 62.1 60.2773 61.8222 59.9002 61.6932C59.5628 61.5741 59.1659 61.5543 58.8087 61.5344C58.4515 61.5146 58.0546 61.5046 57.6776 61.5245C57.3005 61.5443 56.9235 61.5642 56.5563 61.6138C56.3281 61.6436 56.1098 61.6832 55.9411 61.8619C55.7625 62.0504 55.703 62.2984 55.7724 62.5366C55.9312 63.1518 56.8838 62.8938 56.725 62.2687C56.8441 62.7251 56.4174 62.5961 56.6556 62.5862C56.725 62.5862 56.8044 62.5663 56.8838 62.5663C57.0326 62.5564 57.1814 62.5366 57.3303 62.5267C57.6081 62.5068 57.8859 62.4969 58.1538 62.4969C58.6301 62.4969 59.2156 62.4969 59.6422 62.6557C59.6224 62.6557 59.7018 62.7152 59.672 62.6854C59.672 62.6557 59.672 62.6656 59.6918 62.7251V62.7053C59.6918 62.7053 59.6918 62.5862 59.7414 62.5961C59.7414 62.5961 59.6124 62.6656 59.6621 62.6457C59.4239 62.745 59.1659 62.7648 58.9476 62.9037C58.4515 63.2312 58.3225 63.9456 58.2233 64.4913L59.1759 64.7592C59.2552 64.1936 59.2949 63.6281 59.285 63.0526C59.285 62.7846 59.0667 62.5564 58.7889 62.5564C58.5111 62.5564 58.2828 62.7846 58.2928 63.0526V63.0327Z" fill="#6B7280"/>
<path d="M56.2405 62.8444C56.2405 62.8444 56.3198 62.775 56.3595 62.7452L56.2603 62.8246C56.3298 62.775 56.4092 62.7254 56.4885 62.6857C56.5481 62.6559 56.5977 62.6162 56.6274 62.5567C56.6671 62.5071 56.6969 62.4574 56.7167 62.388L56.7366 62.259C56.7366 62.1895 56.7267 62.13 56.6969 62.0705C56.687 62.0308 56.6671 61.9911 56.6374 61.9613C56.5977 61.9117 56.558 61.8621 56.4985 61.8323C56.3794 61.7728 56.2504 61.743 56.1115 61.7827C55.9527 61.8323 55.8039 61.9117 55.6947 62.0407C55.6451 62.1002 55.5955 62.1697 55.5558 62.2392C55.536 62.2888 55.5062 62.3483 55.4864 62.4078C55.4665 62.4674 55.4665 62.5368 55.4566 62.5964C55.4566 62.6757 55.4566 62.765 55.4764 62.8444C55.4963 62.9238 55.5261 63.0032 55.5657 63.0726C55.6352 63.2116 55.7741 63.3405 55.913 63.4199C56.0321 63.4795 56.171 63.5092 56.3 63.4695C56.4191 63.4398 56.5381 63.3505 56.5977 63.2413C56.6572 63.1223 56.687 62.9833 56.6473 62.8543C56.6076 62.7353 56.5381 62.6162 56.4191 62.5567C56.3992 62.5567 56.3794 62.5368 56.3695 62.5269L56.4687 62.6063C56.4687 62.6063 56.4191 62.5567 56.3992 62.5368L56.4786 62.6361C56.4786 62.6361 56.4389 62.5765 56.429 62.5468L56.4786 62.6658C56.4786 62.6658 56.4588 62.5964 56.4488 62.5567L56.4687 62.6857C56.4687 62.6857 56.4687 62.6261 56.4687 62.5964L56.4488 62.7254C56.4488 62.7254 56.4588 62.6559 56.4786 62.6261L56.429 62.7452C56.429 62.7452 56.4588 62.6857 56.4786 62.6559L56.3992 62.7551C56.3992 62.7551 56.4488 62.7055 56.4687 62.6857L56.3695 62.765C56.3695 62.765 56.4191 62.7353 56.4488 62.7154L56.3298 62.765C56.3298 62.765 56.3595 62.7551 56.3794 62.7452L55.9924 61.8423C55.8336 61.9216 55.6848 62.0407 55.5558 62.1598C55.4665 62.2491 55.407 62.388 55.407 62.5071C55.407 62.6261 55.4566 62.775 55.5558 62.8543C55.655 62.9337 55.7741 63.0032 55.9031 63.0032C56.0321 63.0032 56.1512 62.9536 56.2504 62.8543L56.2405 62.8444Z" fill="#6B7280"/>
<path d="M59.3361 65.1753C59.3956 64.7884 59.4353 64.4014 59.5048 64.0243C59.5246 63.935 59.5444 63.8556 59.5742 63.7763C59.5941 63.7266 59.5941 63.7366 59.5643 63.7961C59.5643 63.7763 59.5841 63.7564 59.5941 63.7366C59.6139 63.7068 59.6437 63.6671 59.6536 63.6373C59.604 63.6969 59.5941 63.7068 59.6338 63.6671C59.6437 63.6572 59.6635 63.6373 59.6734 63.6274C59.7131 63.5977 59.7032 63.5977 59.6437 63.6473C59.6635 63.6373 59.6734 63.6274 59.6933 63.6175C59.7131 63.6175 59.7231 63.5977 59.7429 63.5877C59.6635 63.6175 59.6536 63.6274 59.7032 63.6076C59.8421 63.5778 59.6238 63.6076 59.7032 63.6076C59.9612 63.5977 60.2093 63.3893 60.1993 63.1115C60.1894 62.8535 59.981 62.5955 59.7032 62.6153C59.1376 62.6451 58.7407 63.0718 58.5919 63.5977C58.5324 63.806 58.5125 64.0144 58.4827 64.2228L58.3835 64.9173C58.3637 65.0563 58.3637 65.1753 58.4331 65.3043C58.4927 65.4036 58.6117 65.5028 58.7308 65.5325C58.9689 65.5822 59.2964 65.4631 59.346 65.1853L59.3361 65.1753Z" fill="#6B7280"/>
<path d="M34.9853 91.6586C30.0538 103.248 26.5512 115.691 24.6858 128.55C24.3484 130.892 27.2954 131.894 27.6427 129.543C29.4684 117.001 32.8222 104.856 37.6346 93.5439C38.5375 91.4205 35.8982 89.5352 34.9853 91.6685V91.6586Z" fill="#6B7280"/>
<path d="M97.6083 93.9508C100.327 108.328 101.895 122.984 102.282 137.739C102.341 140.13 105.368 140.14 105.298 137.739C104.901 122.666 103.294 107.654 100.516 92.9585C100.079 90.6268 97.1618 91.619 97.6083 93.9508Z" fill="#6B7280"/>
</g>
<defs>
<clipPath id="clip0_216_6901">
<rect width="128" height="128" fill="white"/>
</clipPath>
</defs>
</svg>
