<svg width="164" height="26" viewBox="0 0 164 26" fill="none" xmlns="http://www.w3.org/2000/svg">
<g clip-path="url(#clip0_101_79)">
<path d="M49.6384 13.3813C49.6384 14.6412 49.4106 15.8184 48.9532 16.9189C48.4957 18.0174 47.8314 19.0027 46.9563 19.8707C46.0737 20.7311 45.0658 21.3937 43.9326 21.8604C42.7994 22.3271 41.6206 22.5595 40.4001 22.5595C39.1644 22.5595 37.98 22.3271 36.8506 21.8604C35.7212 21.3937 34.7266 20.7311 33.8686 19.8707C32.9784 19.0027 32.3045 18.0136 31.8433 16.9074C31.382 15.7992 31.1523 14.6239 31.1523 13.3813C31.1523 12.131 31.382 10.9538 31.8433 9.84945C32.3045 8.74515 32.9784 7.75993 33.8686 6.89185C34.7266 6.03146 35.7212 5.36888 36.8506 4.90219C37.98 4.43551 39.1644 4.20312 40.4001 4.20312C41.6282 4.20312 42.8108 4.43551 43.9497 4.90219C45.0866 5.36888 46.0889 6.03146 46.9563 6.89185C47.8219 7.75225 48.4862 8.73747 48.9456 9.84369C49.4068 10.9518 49.6365 12.131 49.6365 13.3813H49.6384ZM40.4001 18.5187C41.7079 18.5187 42.788 18.0328 43.6422 17.061C44.4963 16.0892 44.9234 14.862 44.9234 13.3794C44.9234 11.914 44.4906 10.6906 43.6251 9.71118C42.7595 8.73171 41.6833 8.24006 40.4001 8.24006C39.117 8.24006 38.0123 8.72787 37.1581 9.70349C36.3039 10.6791 35.8768 11.9044 35.8768 13.3794C35.8768 14.8774 36.2982 16.1084 37.141 17.0725C37.9838 18.0366 39.0695 18.5187 40.4001 18.5187Z" fill="#464950"/>
<path d="M51.625 22.0955V4.59766H56.2925V12.5467L61.7611 4.59958H67.2544L60.8633 13.1324L67.8086 22.0974H61.9263L56.2925 14.2444V22.0974H51.6269L51.625 22.0955Z" fill="#464950"/>
<path d="M69.8906 22.0936V4.59766H74.5582V12.5467L80.0267 4.59958H85.52L79.1289 13.1324L86.0742 22.0974H80.1919L74.5582 14.2444V22.0974H69.8906V22.0936Z" fill="#464950"/>
<path d="M91.0436 22.0955V14.1119L84.9961 4.59766H90.4058L92.7329 9.1032C92.7481 9.12624 92.7728 9.17041 92.8032 9.23571C93.048 9.70624 93.217 10.1556 93.31 10.5858C93.3878 10.196 93.5586 9.76001 93.8187 9.28373C93.8661 9.1973 93.8965 9.13585 93.9136 9.10512L96.2179 4.59958H101.639L95.5897 14.1138V22.0974H91.0417L91.0436 22.0955Z" fill="#464950"/>
<path d="M3.84755 14.0215C2.52454 15.289 1.26227 16.4989 0 17.7069C6.95861 25.462 19.7939 25.8461 27.2669 17.705C26.6348 17.0981 26.0008 16.4893 25.3669 15.8824C24.7291 15.2717 24.0894 14.6629 23.4175 14.0195C20.6974 16.7832 17.4478 18.26 13.6287 18.262C9.80394 18.2639 6.55431 16.7812 3.84755 14.0234V14.0215Z" fill="#7863DE"/>
<path d="M3.84755 9.64451C2.52264 8.37697 1.26037 7.16896 0 5.96096C6.95861 -1.7941 19.7939 -2.17821 27.2669 5.96288C26.6348 6.56976 26.0008 7.17856 25.3669 7.78545C24.7291 8.39617 24.0894 9.00498 23.4175 9.64835C20.6974 6.88473 17.4478 5.40785 13.6287 5.40592C9.80394 5.404 6.55431 6.88665 3.84755 9.64451Z" fill="#7863DE"/>
<path d="M11.461 22.5546V26L18.562 22.5546" fill="#7863DE"/>
<path d="M101.59 21.796C101.59 21.796 101.59 22.4701 101.59 18.6137C102.208 18.9267 102.971 19.0708 103.902 19.0708C106.76 19.0708 108.095 17.0696 108.095 14.5134V4.84741H111.24V14.5153C111.24 18.8787 108.499 22.061 103.902 22.061C103.091 22.061 102.305 21.965 101.59 21.771V21.7941V21.796Z" fill="#7863DE"/>
<path d="M103.901 22.4275C103.047 22.4275 102.238 22.3257 101.496 22.126L101.572 21.8398H101.226V18.018L101.752 18.283C102.31 18.5653 103.012 18.7017 103.901 18.7017C106.3 18.7017 107.731 17.1365 107.731 14.513V4.48022H111.602V14.5149C111.602 19.249 108.506 22.4275 103.899 22.4275H103.901ZM101.953 21.4826C102.561 21.6228 103.214 21.6919 103.901 21.6919C108.139 21.6919 110.877 18.8745 110.877 14.513V5.21386H108.456V14.5149C108.456 17.5513 106.71 19.4392 103.899 19.4392C103.147 19.4392 102.504 19.347 101.951 19.1607V21.4845L101.953 21.4826Z" fill="#7863DE"/>
<path d="M130.804 13.3999C130.757 17.7633 128.111 22.1267 122.249 22.1267C116.388 22.1267 113.672 17.8593 113.672 13.4229C113.672 8.98655 116.483 4.5271 122.249 4.5271C128.016 4.5271 130.852 8.98655 130.804 13.3999ZM116.769 13.4729C116.842 16.2461 118.318 19.2114 122.249 19.2114C126.18 19.2114 127.659 16.2211 127.707 13.4498C127.754 10.6055 126.182 7.42324 122.249 7.42324C118.316 7.42324 116.697 10.6305 116.769 13.4748V13.4729Z" fill="#7863DE"/>
<path d="M122.249 22.4971C116.072 22.4971 113.308 17.9416 113.308 13.4265C113.308 11.0047 114.094 8.75002 115.524 7.07533C117.148 5.17017 119.474 4.16382 122.251 4.16382C124.805 4.16382 127.004 5.02997 128.606 6.6701C130.261 8.364 131.195 10.8184 131.168 13.4073C131.119 17.932 128.342 22.4971 122.251 22.4971H122.249ZM122.249 4.89746C116.604 4.89746 114.033 9.31849 114.033 13.4265C114.033 17.5345 116.573 21.7635 122.249 21.7635C127.924 21.7635 130.395 17.5633 130.439 13.3996C130.466 11.0066 129.608 8.74234 128.087 7.18864C126.624 5.69063 124.604 4.89938 122.249 4.89938V4.89746ZM122.249 19.5798C120.352 19.5798 118.807 18.9 117.779 17.6132C116.934 16.5569 116.446 15.0916 116.406 13.4841C116.359 11.6193 116.983 9.87352 118.118 8.69432C119.151 7.62267 120.578 7.05612 122.249 7.05612C123.919 7.05612 125.318 7.61115 126.339 8.66168C127.469 9.82359 128.099 11.5713 128.068 13.4572C128.021 16.2823 126.466 19.5798 122.249 19.5798ZM117.131 13.4649C117.198 16.0653 118.578 18.8443 122.249 18.8443C125.92 18.8443 127.298 16.0538 127.343 13.4438C127.372 11.7556 126.817 10.2 125.823 9.17638C124.929 8.25645 123.727 7.78976 122.249 7.78976C120.77 7.78976 119.544 8.26605 118.638 9.20518C117.638 10.2423 117.089 11.796 117.131 13.463V13.4649Z" fill="#7863DE"/>
<path d="M146.888 9.76235C146.888 11.0645 146.269 12.3186 144.72 13.0176C146.673 13.6207 147.389 15.7179 147.389 16.778C147.389 20.5384 144.6 21.7445 141.146 21.7445H133.234V4.86694H141.146C144.433 4.86694 146.888 6.36111 146.888 9.76043V9.76235ZM136.332 11.6425H141.146C143.124 11.6425 143.767 10.7994 143.767 9.83341C143.767 9.06136 143.148 7.75925 141.146 7.75925H136.332V11.6406V11.6425ZM136.332 18.7792H141.146C142.433 18.7792 144.268 18.3452 144.268 16.755C144.268 15.1648 142.433 14.4407 141.146 14.4407H136.332V18.7811V18.7792Z" fill="#7863DE"/>
<path d="M141.145 22.1109H132.871V4.49976H141.145C144.968 4.49976 147.251 6.46637 147.251 9.76198C147.251 11.1255 146.653 12.2433 145.55 12.9769C147.063 13.8296 147.752 15.6157 147.752 16.7776C147.752 20.2672 145.469 22.1109 141.147 22.1109H141.145ZM133.598 21.3773H141.145C145.047 21.3773 147.025 19.8293 147.025 16.7776C147.025 15.9076 146.435 13.9295 144.613 13.3687L143.685 13.0826L144.571 12.6831C145.831 12.1146 146.524 11.0775 146.524 9.7639C146.524 8.07384 145.826 5.23724 141.145 5.23724H133.598V21.3754V21.3773ZM141.145 19.1456H135.969V14.0716H141.145C142.606 14.0716 144.63 15.0031 144.63 16.7527C144.63 18.5023 142.753 19.1456 141.145 19.1456ZM136.694 18.412H141.145C141.606 18.412 143.903 18.3313 143.903 16.7546C143.903 15.5005 142.272 14.8072 141.145 14.8072H136.694V18.412ZM141.145 12.0109H135.969V7.39398H141.145C143.333 7.39398 144.129 8.85357 144.129 9.83496C144.129 11.7977 142.043 12.0109 141.145 12.0109ZM136.694 11.2773H141.145C142.643 11.2773 143.404 10.7933 143.404 9.83688C143.404 9.24728 142.931 8.13146 141.145 8.13146H136.694V11.2792V11.2773Z" fill="#7863DE"/>
<path d="M160.612 8.94416C160.04 7.98006 158.467 7.06397 156.656 7.06397C154.321 7.06397 153.201 8.05304 153.201 9.30522C153.201 10.7763 154.917 11.1854 156.918 11.4274C160.397 11.8614 163.637 12.7775 163.637 16.8029C163.637 20.5633 160.35 22.1785 156.631 22.1785C153.224 22.1785 150.603 21.1183 149.363 18.0321L151.984 16.657C152.723 18.5141 154.653 19.3323 156.679 19.3323C158.704 19.3323 160.515 18.6332 160.515 16.801C160.515 15.2089 158.871 14.5598 156.654 14.3178C153.247 13.9087 150.101 12.9926 150.101 9.20727C150.101 5.73497 153.486 4.31379 156.559 4.28882C159.156 4.28882 161.849 5.0359 163.111 7.64013L160.61 8.94224L160.612 8.94416Z" fill="#7863DE"/>
<path d="M156.631 22.5469C152.697 22.5469 150.21 21.1161 149.027 18.172L148.902 17.8608L152.171 16.1477L152.321 16.5222C152.93 18.0529 154.559 18.969 156.679 18.969C157.493 18.969 160.152 18.8134 160.152 16.8045C160.152 15.2508 158.135 14.8514 156.616 14.6862C153.213 14.2771 149.739 13.3073 149.739 9.21081C149.739 5.59639 153.163 3.95242 156.557 3.92554C159.932 3.92554 162.311 5.15467 163.438 7.48234L163.596 7.80499L160.475 9.42975L160.301 9.13399C159.811 8.30816 158.368 7.43241 156.656 7.43241C154.748 7.43241 153.564 8.15068 153.564 9.30683C153.564 10.463 154.921 10.8183 156.962 11.0641C160.618 11.5212 164 12.5314 164 16.8045C164 19.5816 162.064 22.5488 156.631 22.5488V22.5469ZM149.83 18.2008C150.946 20.6629 153.118 21.8113 156.631 21.8113C159.843 21.8113 163.273 20.4958 163.273 16.8026C163.273 13.3054 160.714 12.2702 156.872 11.7901C155.464 11.6211 152.837 11.3042 152.837 9.30491C152.837 8.04313 153.839 6.69493 156.654 6.69493C158.469 6.69493 160.003 7.54764 160.726 8.46949L162.618 7.48426C161.551 5.60791 159.515 4.65726 156.559 4.65726C153.528 4.6803 150.464 6.09765 150.464 9.20889C150.464 12.5256 152.957 13.5051 156.696 13.9545C157.727 14.0659 160.876 14.4097 160.876 16.8026C160.876 18.5906 159.266 19.7007 156.677 19.7007C154.418 19.7007 152.632 18.7596 151.812 17.1598L149.828 18.1988L149.83 18.2008Z" fill="#7863DE"/>
</g>
<defs>
<clipPath id="clip0_101_79">
<rect width="164" height="26" fill="white"/>
</clipPath>
</defs>
</svg>
